<?xml version="1.0" encoding="UTF-8"?>
<!-- Generator: visioncortex VTracer 0.6.3 -->
<svg version="1.1" xmlns="http://www.w3.org/2000/svg" width="1280" height="1113">
<path d="M0 0 C23.21 21.5 38.52 48.38 45.89 79.1 C46.06 79.78 46.24 80.46 46.42 81.15 C55.88 119.51 46.23 162.02 26.25 195.49 C18.68 207.68 9.6 218.58 -0.11 229.1 C-1.8 230.98 -3.49 232.85 -5.18 234.73 C-6.49 236.19 -7.8 237.65 -9.11 239.1 C-6.02 240.14 -3.81 240.25 -0.56 240.29 C0.58 240.31 1.72 240.33 2.89 240.34 C4.73 240.36 4.73 240.36 6.61 240.39 C8.5 240.41 8.5 240.41 10.43 240.44 C15.14 240.51 19.85 240.57 24.57 240.63 C29.19 240.69 33.81 240.76 38.42 240.82 C39.66 240.84 40.89 240.85 42.16 240.86 C43.29 240.88 44.42 240.9 45.59 240.91 C46.59 240.93 47.59 240.94 48.62 240.95 C50.89 241.1 50.89 241.1 51.89 242.1 C51.98 243.54 52.01 244.98 52.01 246.42 C52.02 247.34 52.02 248.26 52.02 249.21 C52.02 250.7 52.02 250.7 52.02 252.23 C52.02 253.75 52.02 253.75 52.02 255.31 C52.02 257.47 52.02 259.62 52.02 261.78 C52.01 265.09 52.02 268.4 52.02 271.71 C52.02 273.8 52.02 275.89 52.02 277.98 C52.02 278.98 52.02 279.97 52.02 281 C52.02 281.92 52.02 282.84 52.01 283.78 C52.01 285 52.01 285 52.01 286.24 C51.89 288.1 51.89 288.1 50.89 289.1 C48.07 289.21 45.29 289.24 42.48 289.24 C41.11 289.24 41.11 289.24 39.72 289.24 C36.61 289.24 33.5 289.24 30.39 289.23 C29.31 289.23 28.24 289.23 27.13 289.23 C4.43 289.2 -18.26 288.96 -40.96 288.7 C-43.75 288.67 -46.54 288.64 -49.32 288.61 C-53.75 288.56 -58.17 288.51 -62.6 288.45 C-64.25 288.43 -65.91 288.41 -67.56 288.39 C-69.83 288.37 -72.1 288.34 -74.38 288.31 C-75.66 288.29 -76.94 288.28 -78.26 288.26 C-81.11 288.1 -81.11 288.1 -82.11 287.1 C-82.26 282.85 -82.26 278.61 -82.19 274.35 C-82.08 268.14 -82.15 262.02 -82.52 255.82 C-84.08 228.22 -84.08 228.22 -79.12 221.33 C-73.99 217.09 -68.12 215 -61.83 213.04 C-57.98 211.71 -55.21 209.82 -51.93 207.42 C-50.94 206.7 -49.95 205.98 -48.93 205.24 C-48 204.53 -47.07 203.83 -46.11 203.1 C-45.17 202.4 -44.22 201.7 -43.24 200.97 C-20.29 183.19 -6.26 153.04 -2.43 124.64 C0.16 95.7 -7.36 68.64 -26.11 46.1 C-27.03 45.21 -27.95 44.31 -28.89 43.39 C-31.11 41.1 -31.11 41.1 -31.11 39.1 C-31.71 38.84 -32.3 38.57 -32.91 38.3 C-35.15 37.08 -36.61 35.81 -38.43 34.04 C-61.63 13.49 -94.99 5.66 -125.28 7.38 C-151.29 9.31 -176.32 18.97 -196.11 36.1 C-197.33 37.08 -197.33 37.08 -198.56 38.08 C-216.96 53.5 -228.52 77.4 -231.11 101.1 C-231.74 114.94 -232.01 128.72 -228.11 142.1 C-227.82 143.15 -227.82 143.15 -227.51 144.21 C-217.34 179.09 -196.6 200.98 -165.4 218.73 C-164.49 219.25 -163.57 219.78 -162.63 220.32 C-161.81 220.78 -160.99 221.25 -160.14 221.73 C-158.11 223.1 -158.11 223.1 -156.11 226.1 C-155.91 228.74 -155.91 228.74 -155.96 231.94 C-155.98 233.13 -156 234.33 -156.01 235.57 C-156.04 236.86 -156.07 238.15 -156.1 239.49 C-156.13 240.83 -156.15 242.16 -156.17 243.5 C-156.22 246.31 -156.28 249.11 -156.34 251.91 C-156.41 255.51 -156.48 259.11 -156.54 262.71 C-156.58 265.47 -156.64 268.23 -156.69 271 C-156.73 272.97 -156.76 274.94 -156.8 276.92 C-156.82 278.11 -156.85 279.3 -156.88 280.53 C-156.9 281.58 -156.92 282.64 -156.94 283.73 C-157.11 286.1 -157.11 286.1 -158.11 287.1 C-159.58 287.2 -161.05 287.22 -162.51 287.22 C-163.96 287.22 -163.96 287.22 -165.44 287.21 C-167.06 287.2 -167.06 287.2 -168.71 287.19 C-169.85 287.19 -171 287.19 -172.17 287.18 C-187.58 287.11 -202.99 286.93 -218.4 286.73 C-221.88 286.69 -225.35 286.65 -228.83 286.61 C-248.94 286.38 -269.02 286.05 -289.11 285.1 C-289.14 280.65 -289.16 276.19 -289.18 271.73 C-289.19 270.5 -289.19 269.26 -289.2 267.99 C-289.23 257.96 -288.67 248.18 -288.11 238.1 C-268.31 237.77 -248.51 237.44 -228.11 237.1 C-232.57 232.15 -232.57 232.15 -237.11 227.1 C-258.42 202.94 -273.09 175.61 -280.11 144.1 C-280.35 143.05 -280.58 142 -280.83 140.92 C-286.15 113.15 -282.7 81.88 -271.11 56.1 C-270.81 55.4 -270.51 54.7 -270.19 53.98 C-263.07 37.6 -254.18 23.71 -241.74 10.87 C-239.13 8.2 -239.13 8.2 -237.07 5.5 C-233.82 1.51 -229.78 -1.47 -225.74 -4.62 C-224.66 -5.47 -223.58 -6.33 -222.51 -7.19 C-158.53 -58.45 -60.63 -54.36 0 0 Z " fill="#060A08" transform="translate(794.11474609375,416.89599609375)"/>
</svg>
